<svg xmlns="http://www.w3.org/2000/svg" width="2298" height="1064" viewBox="0 0 2298 1064">
  <g id="Group_12" data-name="Group 12" transform="translate(0 -230)">
    <g id="Group_2" data-name="Group 2">
      <g id="Footer">
        <rect id="Rectangle_19" data-name="Rectangle 19" width="1920" height="136" transform="translate(0 898)" fill="#fbb833"/>
        <rect id="Rectangle_20" data-name="Rectangle 20" width="1920" height="46" transform="translate(0 1034)" fill="#a5b2c5"/>
        <line id="Line_1" data-name="Line 1" x2="1920" transform="translate(0.5 1034.5)" fill="none" stroke="#fff" stroke-width="3"/>
      </g>
      <circle id="Ellipse_2" data-name="Ellipse 2" cx="230" cy="230" r="230" transform="translate(1498 333)" fill="#fbb833"/>
      <circle id="Ellipse_1" data-name="Ellipse 1" cx="400" cy="400" r="400" transform="translate(1498 494)" fill="#19253d"/>
      <circle id="Ellipse_3" data-name="Ellipse 3" cx="230" cy="230" r="230" transform="translate(1140 513)" fill="#fff"/>
    </g>
    <g id="Logo_Mark" data-name="Logo Mark" transform="matrix(0.94, 0, 0.229, 0.743, 1185.332, 625.626)">
      <g id="Grinder" transform="translate(0)">
        <rect id="Rectangle_2" data-name="Rectangle 2" width="34.209" height="34.209" transform="translate(140.879)" fill="#a5b2c5"/>
        <rect id="Rectangle_3" data-name="Rectangle 3" width="34.209" height="34.209" transform="translate(74.001 23.081) rotate(-25.71)" fill="#a5b2c5"/>
        <rect id="Rectangle_4" data-name="Rectangle 4" width="34.085" height="34.085" transform="matrix(0.622, -0.783, 0.783, 0.622, 23.478, 72.734)" fill="#a5b2c5"/>
        <rect id="Rectangle_5" data-name="Rectangle 5" width="34.209" height="34.209" transform="translate(0 139.588) rotate(-77.13)" fill="#a5b2c5"/>
        <rect id="Rectangle_6" data-name="Rectangle 6" width="34.209" height="34.209" transform="translate(7.608 209.947) rotate(-102.84)" fill="#a5b2c5"/>
        <rect id="Rectangle_7" data-name="Rectangle 7" width="34.209" height="34.209" transform="translate(44.97 270.05) rotate(-128.55)" fill="#a5b2c5"/>
        <rect id="Rectangle_8" data-name="Rectangle 8" width="34.209" height="34.209" transform="translate(104.706 307.985) rotate(-154.26)" fill="#a5b2c5"/>
        <rect id="Rectangle_9" data-name="Rectangle 9" width="34.209" height="34.209" transform="translate(174.88 316.338) rotate(180)" fill="#a5b2c5"/>
        <path id="Path_2" data-name="Path 2" d="M90.107,88.335,59.274,103.127,48.19,80.044l-.25-.542L78.732,64.71l.292.583Z" transform="translate(151.815 204.919)" fill="#a5b2c5"/>
        <rect id="Rectangle_10" data-name="Rectangle 10" width="34.209" height="34.209" transform="matrix(-0.624, 0.781, -0.781, -0.624, 292.225, 243.443)" fill="#a5b2c5"/>
        <rect id="Rectangle_11" data-name="Rectangle 11" width="34.209" height="34.209" transform="translate(315.923 176.79) rotate(102.9)" fill="#a5b2c5"/>
        <rect id="Rectangle_12" data-name="Rectangle 12" width="34.209" height="34.209" transform="translate(308.427 106.406) rotate(77.19)" fill="#a5b2c5"/>
        <rect id="Rectangle_13" data-name="Rectangle 13" width="34.209" height="34.209" transform="translate(271.035 46.265) rotate(51.48)" fill="#a5b2c5"/>
        <rect id="Rectangle_14" data-name="Rectangle 14" width="34.209" height="34.209" transform="translate(211.333 8.307) rotate(25.77)" fill="#a5b2c5"/>
      </g>
      <g id="Wheels" transform="translate(25.419 25.564)">
        <path id="Path_3" data-name="Path 3" d="M100.113,17.55a85.5,85.5,0,0,0,0,170.836,79.628,79.628,0,0,0,14.167-1.25l-13.125-27.292h-1.042a57.126,57.126,0,1,1,43.917-20.417l13.125,27.292A85.418,85.418,0,0,0,100.113,17.55Z" transform="translate(32.806 30.012)" fill="#a5b2c5"/>
        <path id="Path_4" data-name="Path 4" d="M271.479,126.032A132.838,132.838,0,0,0,263.812,92.7a127.668,127.668,0,0,0-11.167-22.875,132.379,132.379,0,0,0-19.459-24.667l-2-2.083a134.917,134.917,0,0,0-19.834-15.75A135.623,135.623,0,0,0,121.518,7.238a130.6,130.6,0,0,0-55.251,20.5A134.21,134.21,0,0,0,46.726,43.406l-1.667,1.625A132.044,132.044,0,0,0,6.725,125.99c-.417,4.167-.625,8.667-.625,13.042a87.474,87.474,0,0,0,.542,12.084,132.835,132.835,0,0,0,18.25,56.209,135.294,135.294,0,0,0,20.167,25.75l1.042,1.042a135.168,135.168,0,0,0,19.75,15.959,131.086,131.086,0,0,0,55.584,20.834,137.071,137.071,0,0,0,17.584,1.333,135.632,135.632,0,0,0,16.667-1,129.167,129.167,0,0,0,18.792-3.708l-12.5-26.25a104.835,104.835,0,0,1-68.549-196.7C141.413,21.431,199.772,38.968,227.6,82.987s18.629,104.259-22.869,137.671l12.5,26.292a126.879,126.879,0,0,0,14.334-12.209l1.625-1.542a135.168,135.168,0,0,0,19.75-25,131.128,131.128,0,0,0,11.084-23.25,132.915,132.915,0,0,0,7.5-33.334c.375-4.167.542-8.333.542-12.5S271.9,130.574,271.479,126.032Zm-91.043,138.96-3.417,1.667c1.25-.333,2.458-.708,3.708-1.125a130.126,130.126,0,0,0,30.792-14.792c1.125-.708,2.25-1.458,3.333-2.292l-3.583,1.75Z" transform="translate(-6.1 -6.135)" fill="#a5b2c5"/>
        <rect id="Rectangle_15" data-name="Rectangle 15" width="18.375" height="122.377" transform="translate(193.871 238.881) rotate(154.32)" fill="#a5b2c5"/>
        <path id="Path_5" data-name="Path 5" d="M46.51,69.41a8.416,8.416,0,0,0,2.542-.75l-2.375,1.125Z" transform="translate(121.868 191.864)" fill="#a5b2c5"/>
        <path id="Path_6" data-name="Path 6" d="M58.742,64.317,56.2,65.525c.792-.5,1.583-1.042,2.333-1.625Z" transform="translate(152.553 176.79)" fill="#a5b2c5"/>
      </g>
    </g>
    <g id="Group_11" data-name="Group 11">
      <g id="Rectangle_25" data-name="Rectangle 25" transform="translate(1122 230)" fill="#a5b2c5" stroke="#707070" stroke-width="1" opacity="0.31">
        <rect width="382" height="239" rx="19" stroke="none"/>
        <rect x="0.5" y="0.5" width="381" height="238" rx="18.5" fill="none"/>
      </g>
      <circle id="Ellipse_10" data-name="Ellipse 10" cx="7.5" cy="7.5" r="7.5" transform="translate(1465 252)" fill="#828181"/>
      <ellipse id="Ellipse_11" data-name="Ellipse 11" cx="7" cy="7.5" rx="7" ry="7.5" transform="translate(1435 252)" fill="#828181"/>
      <ellipse id="Ellipse_12" data-name="Ellipse 12" cx="7" cy="7.5" rx="7" ry="7.5" transform="translate(1404 252)" fill="#828181"/>
      <line id="Line_4" data-name="Line 4" x1="382" transform="translate(1122 274)" fill="none" stroke="#707070" stroke-width="1"/>
    </g>
  </g>
</svg>
