<svg xmlns="http://www.w3.org/2000/svg" width="186.676" height="106.066" viewBox="0 0 186.676 106.066">
  <g id="Group_4" data-name="Group 4" transform="translate(-867 -97.272)">
    <g id="Group_3" data-name="Group 3" transform="translate(878.338 -707)">
      <circle id="Ellipse_4" data-name="Ellipse 4" cx="9" cy="9" r="9" transform="translate(162.61 804.272) rotate(45)" fill="#a5b2c5"/>
      <circle id="Ellipse_4-2" data-name="Ellipse 4" cx="9" cy="9" r="9" transform="translate(108.87 804.272) rotate(45)" fill="#a5b2c5"/>
      <circle id="Ellipse_4-3" data-name="Ellipse 4" cx="9" cy="9" r="9" transform="translate(135.74 831.142) rotate(45)" fill="#a5b2c5"/>
      <circle id="Ellipse_4-4" data-name="Ellipse 4" cx="9" cy="9" r="9" transform="translate(55.13 804.272) rotate(45)" fill="#a5b2c5"/>
      <circle id="Ellipse_4-5" data-name="Ellipse 4" cx="9" cy="9" r="9" transform="translate(82 831.142) rotate(45)" fill="#a5b2c5"/>
      <circle id="Ellipse_4-6" data-name="Ellipse 4" cx="9" cy="9" r="9" transform="translate(108.87 858.012) rotate(45)" fill="#a5b2c5"/>
      <circle id="Ellipse_4-7" data-name="Ellipse 4" cx="9" cy="9" r="9" transform="translate(1.39 804.272) rotate(45)" fill="#a5b2c5"/>
      <circle id="Ellipse_4-8" data-name="Ellipse 4" cx="9" cy="9" r="9" transform="translate(28.26 831.142) rotate(45)" fill="#a5b2c5"/>
      <circle id="Ellipse_4-9" data-name="Ellipse 4" cx="9" cy="9" r="9" transform="translate(55.13 858.012) rotate(45)" fill="#a5b2c5"/>
      <circle id="Ellipse_4-10" data-name="Ellipse 4" cx="9" cy="9" r="9" transform="translate(82 884.882) rotate(45)" fill="#a5b2c5"/>
    </g>
  </g>
</svg>
