<svg xmlns="http://www.w3.org/2000/svg" viewBox="0 0 278.05 75.91"><defs><style>.cls-1{font-size:46.35px;}.cls-1,.cls-10,.cls-12,.cls-5,.cls-6,.cls-9{fill:#fff;}.cls-1,.cls-12{font-family:BerkshireSwash-Regular, Berkshire Swash;}.cls-2{letter-spacing:-0.01em;}.cls-3{letter-spacing:0.05em;}.cls-13,.cls-4{fill:red;}.cls-4{letter-spacing:0em;}.cls-10,.cls-6,.cls-9{font-size:18.26px;font-family:Akrobat-Regular, Akrobat;}.cls-6{letter-spacing:-0.09em;}.cls-7{letter-spacing:0em;}.cls-8{letter-spacing:0em;}.cls-9{letter-spacing:-0.03em;}.cls-11{letter-spacing:-0.01em;}.cls-12{font-size:16.38px;}</style></defs><g id="Layer_2" data-name="Layer 2"><g id="Repairs_2" data-name="Repairs 2"><g id="White-Red_Logo" data-name="White-Red Logo"><g id="Nuestman"><text class="cls-1" transform="translate(110.44 47.82)">ue<tspan class="cls-2" x="47.18" y="0">s</tspan><tspan class="cls-3" x="64.29" y="0">t</tspan><tspan class="cls-4" x="82.22" y="0">man</tspan></text><path class="cls-5" d="M107.58,32.43c.17,2,.07,4,.07,5.89v7.46a3.18,3.18,0,0,1-.09.66,1.68,1.68,0,0,1-.45.79,2.93,2.93,0,0,1-1,.67,5.09,5.09,0,0,1-1.89.28,5.46,5.46,0,0,1-1.9-.26,2.67,2.67,0,0,1-1-.63,1.77,1.77,0,0,1-.45-.79,3.49,3.49,0,0,1-.08-.72s0-7.83,0-7.83v-1.4a32.2,32.2,0,0,0-.26-4.56,9.25,9.25,0,0,0-.69-2.6,3.55,3.55,0,0,0-.23-.43,2,2,0,0,0-.72-.75,2.28,2.28,0,0,0-2.71.42c-.39.37-1.48,1.46-1.48,2v5.89c0,1.84,0,3.45.13,4.83S95,44,95.12,45a15.88,15.88,0,0,0,.63,2.52,6.75,6.75,0,0,0,.83,1.66,3.43,3.43,0,0,0,1.06,1,4.42,4.42,0,0,0,1.25.5l-.24.93a11.45,11.45,0,0,1-1.94-.27,9.21,9.21,0,0,1-2.34-.84A11.2,11.2,0,0,1,92,48.78,10.47,10.47,0,0,1,89.8,46a16.66,16.66,0,0,1-1.55-4.12A22.06,22.06,0,0,1,87.71,38c0-.56,0-1.15,0-1.76V28.31a2,2,0,0,0-.31-1.14,1.1,1.1,0,0,0-1-.49,1.49,1.49,0,0,0-.66.14,2.72,2.72,0,0,0-.58.38l-.48-.56a12.65,12.65,0,0,1,1.17-.85,8.75,8.75,0,0,1,1.39-.74,10.71,10.71,0,0,1,1.6-.52,8.23,8.23,0,0,1,1.81-.2,5.36,5.36,0,0,1,1.71.23,2.36,2.36,0,0,1,.58.25A3.29,3.29,0,0,1,94.07,26a3.68,3.68,0,0,1,.47,1.41c0,.5.07.91.07,1.24a12.29,12.29,0,0,1,1.91-2.15,7.78,7.78,0,0,1,1-.79l.18-.13a7,7,0,0,1,1-.56,6.21,6.21,0,0,1,1.26-.49,5.33,5.33,0,0,1,1.38-.18,6.78,6.78,0,0,1,1.78.23,5.07,5.07,0,0,1,.94.36,4.89,4.89,0,0,1,2,2A12.78,12.78,0,0,1,107.58,32.43Z"/></g><g id="Subs"><text class="cls-6" transform="translate(85.34 69.39)">T<tspan class="cls-7" x="5.79" y="0">e</tspan><tspan class="cls-8" x="14" y="0">c</tspan><tspan class="cls-7" x="21.8" y="0">h</tspan></text><text class="cls-9" transform="translate(124.42 69.39)">W<tspan class="cls-7" x="12.52" y="0">eb</tspan></text><text class="cls-10" transform="translate(162.45 69.39)">G<tspan class="cls-11" x="9.05" y="0">r</tspan><tspan x="14.95" y="0">aphics</tspan></text><text class="cls-10" transform="translate(230 69.39)">Health</text></g><g id="Dots"><text class="cls-12" transform="translate(117.27 64.78)">.</text><text class="cls-12" transform="translate(155.44 64.65)">.</text><text class="cls-12" transform="translate(223.09 64.65)">.</text></g><g id="Set.Logo"><g id="Grinder"><rect class="cls-5" x="33.81" width="8.21" height="8.21"/><rect class="cls-5" x="19.13" y="3.35" width="8.21" height="8.21" transform="translate(-0.93 10.82) rotate(-25.71)"/><rect class="cls-5" x="7.35" y="12.74" width="8.21" height="8.21" transform="matrix(0.62, -0.78, 0.78, 0.62, -8.86, 15.29)"/><rect class="cls-5" x="0.81" y="26.31" width="8.21" height="8.21" transform="translate(-25.83 28.43) rotate(-77.13)"/><rect class="cls-5" x="0.81" y="41.37" width="8.21" height="8.21" transform="translate(-38.33 60.37) rotate(-102.84)"/><rect class="cls-5" x="7.34" y="54.94" width="8.21" height="8.21" transform="translate(-27.6 104.79) rotate(-128.55)"/><rect class="cls-5" x="19.11" y="64.34" width="8.21" height="8.21" transform="translate(14.4 140.17) rotate(-154.26)"/><rect class="cls-5" x="33.79" y="67.7" width="8.21" height="8.21" transform="matrix(-1, 0, 0, -1, 75.76, 143.62)"/><polygon class="cls-5" points="58.06 70.38 50.66 73.93 48 68.39 47.94 68.26 55.33 64.71 55.4 64.85 58.06 70.38"/><rect class="cls-5" x="60.26" y="54.97" width="8.21" height="8.21" transform="translate(150.69 45.64) rotate(128.61)"/><rect class="cls-5" x="66.81" y="41.41" width="8.21" height="8.21" transform="translate(131.1 -13.45) rotate(102.9)"/><rect class="cls-5" x="66.82" y="26.34" width="8.21" height="8.21" transform="translate(84.89 -45.46) rotate(77.19)"/><rect class="cls-5" x="60.29" y="12.77" width="8.21" height="8.21" transform="translate(37.49 -44.02) rotate(51.48)"/><rect class="cls-5" x="48.53" y="3.37" width="8.21" height="8.21" transform="translate(8.48 -22.14) rotate(25.77)"/></g><g id="Wheels"><path class="cls-5" d="M38,17.55a20.52,20.52,0,0,0,0,41,19.11,19.11,0,0,0,3.4-.3l-3.15-6.55H38A13.71,13.71,0,1,1,48.54,46.8l3.15,6.55A20.5,20.5,0,0,0,38,17.55Z"/><path class="cls-5" d="M69.79,34.91a31.88,31.88,0,0,0-1.84-8,30.64,30.64,0,0,0-2.68-5.49A31.77,31.77,0,0,0,60.6,15.5L60.12,15a32.38,32.38,0,0,0-4.76-3.78A31.61,31.61,0,0,0,42,6.4a31.88,31.88,0,0,0-8.2,0,31.55,31.55,0,0,0-5.88,1.34,31.86,31.86,0,0,0-7.38,3.58,32.21,32.21,0,0,0-4.69,3.76l-.4.39a31.69,31.69,0,0,0-9.2,19.43c-.1,1-.15,2.08-.15,3.13s0,1.94.13,2.9a31.88,31.88,0,0,0,4.38,13.49,32.47,32.47,0,0,0,4.84,6.18l.25.25a32.44,32.44,0,0,0,4.74,3.83,31.46,31.46,0,0,0,13.34,5A32.9,32.9,0,0,0,38,70a32.55,32.55,0,0,0,4-.24,31,31,0,0,0,4.51-.89l-3-6.3a25.16,25.16,0,1,1,10.26-4.95l3,6.31A30.45,30.45,0,0,0,60.21,61l.39-.37a32.44,32.44,0,0,0,4.74-6A31.47,31.47,0,0,0,68,49.05a31.9,31.9,0,0,0,1.8-8c.09-1,.13-2,.13-3S69.89,36,69.79,34.91ZM47.94,68.26l-.82.4c.3-.08.59-.17.89-.27a31.23,31.23,0,0,0,7.39-3.55c.27-.17.54-.35.8-.55l-.86.42Z"/><rect class="cls-5" x="42.07" y="36.5" width="4.41" height="29.37" transform="translate(106.36 78.13) rotate(154.32)"/><path class="cls-5" d="M46.51,68.84c.2,0,.41-.11.61-.18l-.57.27Z"/><path class="cls-5" d="M56.81,64l-.61.29c.19-.12.38-.25.56-.39Z"/></g></g><rect class="cls-13" x="99.51" y="50.54" width="165.98" height="1.04"/><rect class="cls-5" x="98.5" y="50.54" width="93.44" height="1.04"/></g></g></g></svg>