<svg xmlns="http://www.w3.org/2000/svg" width="106.066" height="186.676" viewBox="0 0 106.066 186.676">
  <g id="Group_5" data-name="Group 5" transform="translate(-69.272 -723.662)">
    <circle id="Ellipse_4" data-name="Ellipse 4" cx="9" cy="9" r="9" transform="translate(82 723.662) rotate(45)" fill="#fbb833"/>
    <circle id="Ellipse_4-2" data-name="Ellipse 4" cx="9" cy="9" r="9" transform="translate(108.87 750.532) rotate(45)" fill="#fbb833"/>
    <circle id="Ellipse_4-3" data-name="Ellipse 4" cx="9" cy="9" r="9" transform="translate(135.74 777.402) rotate(45)" fill="#fbb833"/>
    <circle id="Ellipse_4-4" data-name="Ellipse 4" cx="9" cy="9" r="9" transform="translate(162.61 804.272) rotate(45)" fill="#fbb833"/>
    <circle id="Ellipse_4-5" data-name="Ellipse 4" cx="9" cy="9" r="9" transform="translate(82 777.402) rotate(45)" fill="#fbb833"/>
    <circle id="Ellipse_4-6" data-name="Ellipse 4" cx="9" cy="9" r="9" transform="translate(108.87 804.272) rotate(45)" fill="#fbb833"/>
    <circle id="Ellipse_4-7" data-name="Ellipse 4" cx="9" cy="9" r="9" transform="translate(135.74 831.142) rotate(45)" fill="#fbb833"/>
    <circle id="Ellipse_4-8" data-name="Ellipse 4" cx="9" cy="9" r="9" transform="translate(82 831.142) rotate(45)" fill="#fbb833"/>
    <circle id="Ellipse_4-9" data-name="Ellipse 4" cx="9" cy="9" r="9" transform="translate(108.87 858.012) rotate(45)" fill="#fbb833"/>
    <circle id="Ellipse_4-10" data-name="Ellipse 4" cx="9" cy="9" r="9" transform="translate(82 884.882) rotate(45)" fill="#fbb833"/>
  </g>
</svg>
